<svg xmlns="http://www.w3.org/2000/svg" xmlns:svg="http://www.w3.org/2000/svg" id="svg2860" width="16" height="16" version="1.1"><metadata id="metadata2865"/><g id="layer1"><path id="path2885" fill="none" stroke="none" d="m 13.109406,5.255693 a 5.203218,3.8066833 0 1 1 -10.406436,0 5.203218,3.8066833 0 1 1 10.406436,0 z"/><path id="path2887" fill="none" stroke="none" d="m 13.830198,9.9633665 a 0.36039606,1.0361387 0 1 1 -0.720792,0 0.36039606,1.0361387 0 1 1 0.720792,0 z"/><path id="path2889" fill="none" stroke="none" d="m 15.587129,5.9990096 a 7.6809411,5.5861387 0 1 1 -15.36188209,0 7.6809411,5.5861387 0 1 1 15.36188209,0 z"/><path id="path2891" fill="none" stroke="none" d="m 6.6673268,6.8549504 a 0.04504951,0.99108911 0 1 1 -0.090099,0 0.04504951,0.99108911 0 1 1 0.090099,0 z"/><path id="path2893" fill="#453748" stroke="none" d="m 13.559901,5.9089108 a 5.5861387,5.4960399 0 1 1 -11.1722772,0 5.5861387,5.4960399 0 1 1 11.1722772,0 z" transform="matrix(1.2531017,0,0,1.2736443,-2.0280742,0.34791246)"/><text id="text2922" x="3.784" y="12.081" fill="#fff" fill-opacity="1" stroke="none" font-family="Arial Black" font-size="12" font-stretch="normal" font-style="normal" font-variant="normal" font-weight="normal" text-anchor="start" writing-mode="lr-tb" xml:space="preserve" style="text-align:start;line-height:100%;-inkscape-font-specification:'Arial Black,'"><tspan font-stretch="normal" style="text-align:start;line-height:100%;-inkscape-font-specification:'Arial Black,'" id="tspan2924" x="3.784" y="12.081" fill="#fff" font-family="Arial Black" font-size="12" font-style="normal" font-variant="normal" font-weight="normal" text-anchor="start" writing-mode="lr-tb">T</tspan></text></g></svg>